<svg height="650pt" fill="#FFF" viewBox="-20 -82 650.66534 650" width="650pt" xmlns="http://www.w3.org/2000/svg"><path d="m459.304688 160.0625h56.972656c4.828125 0 8.742187-3.914062 8.742187-8.746094 0-4.832031-3.914062-8.742187-8.742187-8.742187h-48.230469v-66.03125c0-4.828125-3.917969-8.746094-8.742187-8.746094-4.832032 0-8.746094 3.917969-8.746094 8.746094v74.777343c0 4.828126 3.914062 8.742188 8.746094 8.742188zm0 0"/><path d="m15.179688 463.867188c.390624.378906.816406.722656 1.269531 1.023437 11.042969 11.511719 26.304687 18.019531 42.257812 18.015625h349.765625c15.933594.003906 31.175782-6.484375 42.214844-17.964844 1.238281-.816406 2.242188-1.9375 2.925781-3.25 8.777344-10.519531 13.585938-23.792968 13.570313-37.496094v-139.160156c79.277344-.871094 143.023437-65.503906 142.816406-144.78125-.210938-79.28125-64.292969-143.570312-143.578125-144.027344-4.832031 0-8.742187 3.910157-8.742187 8.742188 0 4.824219 3.910156 8.746094 8.742187 8.746094 55.386719.011718 104.367187 35.941406 121.023437 88.765625 16.648438 52.828125-2.878906 110.351562-48.246093 142.128906-45.367188 31.769531-106.097657 30.457031-150.054688-3.246094-.277343-.25-.574219-.476562-.882812-.6875-24.113281-18.789062-40.601563-45.683593-46.410157-75.703125h21.09375c3.191407 0 6.128907-1.738281 7.660157-4.535156 1.539062-2.800781 1.425781-6.210938-.292969-8.90625l-30.324219-47.589844c-1.605469-2.523437-4.386719-4.046875-7.375-4.046875-2.984375 0-5.765625 1.523438-7.371093 4.046875l-17.480469 27.425782h-249.054688c-29.503906.046874-54.402343 21.949218-58.210937 51.207031-.464844 1.332031-.597656 2.757812-.394532 4.160156-.0624995 1.105469-.101562 2.222656-.101562 3.34375v234.117187c-.015625 13.691407 4.78125 26.957032 13.550781 37.476563.425781.808594.972657 1.550781 1.628907 2.195313zm43.527343 1.550781c-8.925781.011719-17.605469-2.894531-24.734375-8.265625l105.488282-107.898438c2.21875-2.226562 3.066406-5.472656 2.230468-8.5-.839844-3.027344-3.238281-5.375-6.285156-6.140625-3.042969-.773437-6.269531.148438-8.445312 2.414063l-104.464844 106.847656c-3.296875-6.035156-5.015625-12.804688-5.011719-19.679688v-219.890624l181.457031 153.648437c20.019532 17.042969 49.449219 17.027344 69.453125-.03125l106.378907-90.222656c.097656-.082031.191406-.167969.285156-.253907l8.878906-8.210937c19.527344 13.589844 42.121094 22.132813 65.757812 24.855469v140.105468c.007813 6.902344-1.726562 13.691407-5.046874 19.742188l-105.09375-106.925781c-2.183594-2.273438-5.414063-3.195313-8.460938-2.414063-3.050781.777344-5.453125 3.132813-6.28125 6.167969s.039062 6.285156 2.269531 8.503906l106.070313 107.921875c-7.113282 5.347656-15.78125 8.230469-24.679688 8.222656zm273.914063-340.523438 14.386718 22.582031h-28.773437zm-273.914063 23.949219h237.921875l-1.707031 2.679688c-1.71875 2.691406-1.832031 6.101562-.292969 8.898437 1.53125 2.800781 4.46875 4.542969 7.660156 4.542969h21.761719c5.429688 32.179687 21.644531 61.554687 45.992188 83.292968l-6.726563 6.222657-106.238281 90.105469c-13.492187 11.507812-33.34375 11.511718-46.84375.019531l-191.960937-162.550781c3.84375-19.289063 20.761718-33.1875 40.433593-33.210938zm0 0"/></svg>